<?xml version="1.0" encoding="utf-8"?>
<!-- Generator: Adobe Illustrator 15.0.0, SVG Export Plug-In . SVG Version: 6.00 Build 0)  -->
<!DOCTYPE svg PUBLIC "-//W3C//DTD SVG 1.1//EN" "http://www.w3.org/Graphics/SVG/1.1/DTD/svg11.dtd">
<svg version="1.1" id="Ebene_1" xmlns="http://www.w3.org/2000/svg" xmlns:xlink="http://www.w3.org/1999/xlink" x="0px" y="0px"
	 width="440.978px" height="89.995px" viewBox="0 0 440.978 89.995" enable-background="new 0 0 440.978 89.995"
	 xml:space="preserve">
<g>
	<path fill="#FFFFFF" d="M41.858,41.017l12.26,4.907l1.048-3.212L42.36,39.479L41.858,41.017z M20.944,39.479L8.138,42.712
		l1.043,3.212l12.263-4.907L20.944,39.479z M21.446,32.683L9.182,27.771l-1.043,3.215l12.809,3.234L21.446,32.683z M24.537,28.427
		l1.307-0.952L18.81,16.297l-2.73,1.987L24.537,28.427z M18.81,57.4l7.034-11.182l-1.306-0.95L16.08,55.415L18.81,57.4z
		 M32.461,25.855l0.882-13.182h-3.381l0.881,13.182H32.461z M29.963,61.027h3.381l-0.882-13.18h-1.618L29.963,61.027z
		 M38.769,45.269l-1.308,0.95L44.493,57.4l2.735-1.985L38.769,45.269z M38.769,28.426l8.459-10.142l-2.735-1.987l-7.03,11.178
		L38.769,28.426z M42.357,34.22l12.807-3.234l-1.046-3.215l-12.26,4.912L42.357,34.22z"/>
	<g>
		<path fill="#FFFFFF" d="M286.865,41.636c0,0.142,0.073,0.581,2.026,0.581h8.291c1.953,0,2.024-0.439,2.024-0.581v-9.575
			c0-0.139-0.071-0.579-2.024-0.579h-8.291c-1.953,0-2.026,0.44-2.026,0.579V41.636z M276.578,43.013V30.687
			c0-3.978,2.714-5.749,11.168-5.749h10.582c8.46,0,11.168,1.771,11.168,5.749v12.326c0,3.978-2.708,5.748-11.168,5.748h-10.582
			C279.292,48.761,276.578,46.99,276.578,43.013"/>
	</g>
	<polygon fill="#FFFFFF" points="234.975,24.902 204.471,24.902 204.471,32.07 214.651,32.07 214.651,48.761 224.52,48.761 
		224.52,32.07 234.975,32.07 	"/>
	<rect x="350.726" y="24.902" fill="#FFFFFF" width="9.795" height="23.859"/>
	<polygon fill="#FFFFFF" points="399.845,24.902 388.176,24.902 382.738,30.53 377.63,24.902 364.894,24.902 375.481,36.566 
		364.388,48.761 377.118,48.761 382.695,42.468 388.687,48.761 400.347,48.761 389.259,36.566 	"/>
	<path fill="#FFFFFF" d="M92.796,47.299h-23.68V26.4h8.289v16.734h15.391V47.299z M94.256,48.761v-7.093H78.864v-16.73H67.651
		v23.823H94.256z"/>
	<path fill="#FFFFFF" d="M197.752,47.299h-8.292v-20.9h8.292V47.299z M199.213,24.937h-11.212v23.824h11.212V24.937z"/>
	<g>
		<path fill="#FFFFFF" d="M126.625,47.299h-17.151c-8.361,0-11.535-2.359-11.535-7.656V26.4h8.29v11.659
			c0,5.076,0.359,5.076,5.979,5.076h6.024V26.4h8.393V47.299z M128.083,48.761V24.938h-11.312v16.73h-4.558
			c-4.251,0-4.522,0-4.522-3.832V24.938H96.48v15.388c0,5.84,3.494,8.435,12.706,8.435H128.083z"/>
		<path fill="#FFFFFF" d="M314.333,24.938v23.823h11.319V31.482h4.554c4.25,0,4.53,0,4.53,3.835v13.443h11.209v-15.39
			c0-5.837-3.498-8.433-12.709-8.433H314.333z"/>
		<path fill="#FFFFFF" d="M134.808,26.4h35.439c8.364,0,11.535,2.355,11.535,7.652v13.247h-8.289V35.641
			c0-5.075-0.362-5.075-5.982-5.075h-5.121v16.734h-8.391V30.565h-10.8v16.734h-8.391V26.4z M133.344,24.938v23.823h11.313V32.028
			h7.88v16.732h11.311V32.028h3.655c4.253,0,4.529,0,4.529,3.837v12.895h11.21v-15.39c0-5.837-3.496-8.433-12.709-8.433H133.344z"/>
		<path fill="#FFFFFF" d="M261.327,34.603c0,0.144-0.074,0.865-2.026,0.865h-9.941v-4.269h9.941c1.952,0,2.026,0.724,2.026,0.862
			V34.603z M271.609,35.059v-4.373c0-3.978-2.709-5.749-11.164-5.749h-21.374v23.823h10.288v-7.954h4.228l7.538,7.954h11.639
			l-7.762-8.194C269.9,39.966,271.609,38.207,271.609,35.059"/>
	</g>
	<path fill="#FFFFFF" d="M405.45,27.685h1.159c0.554,0,0.918-0.081,1.125-0.248c0.202-0.163,0.304-0.381,0.304-0.653
		c0-0.174-0.041-0.331-0.141-0.466c-0.103-0.14-0.23-0.243-0.411-0.311c-0.167-0.069-0.481-0.103-0.944-0.104h-1.092V27.685z
		 M404.498,31.011v-5.907h2.034c0.689,0,1.191,0.057,1.498,0.164c0.314,0.108,0.552,0.299,0.745,0.57
		c0.181,0.27,0.274,0.558,0.274,0.864c0,0.432-0.148,0.807-0.468,1.126c-0.3,0.319-0.71,0.502-1.22,0.542
		c0.203,0.082,0.376,0.188,0.502,0.309c0.237,0.233,0.526,0.624,0.866,1.171l0.732,1.159h-1.169l-0.529-0.931
		c-0.406-0.735-0.738-1.191-0.989-1.379c-0.175-0.134-0.427-0.2-0.761-0.2h-0.564v2.509H404.498z"/>
	<path fill="#FFFFFF" d="M411.355,27.972c0,2.537-2.058,4.593-4.603,4.593c-2.529,0-4.59-2.057-4.59-4.593
		c0-2.538,2.061-4.597,4.59-4.597C409.297,23.375,411.355,25.435,411.355,27.972 M412.249,27.972c0-3.033-2.457-5.49-5.496-5.49
		c-3.023,0-5.488,2.457-5.488,5.49c0,3.031,2.465,5.482,5.488,5.482C409.792,33.454,412.249,31.003,412.249,27.972"/>
</g>
</svg>
