<svg id="Ebene_1" data-name="Ebene 1" xmlns="http://www.w3.org/2000/svg" viewBox="0 0 404.11 57.33"><defs><style>.cls-1{fill:#1a171b;}</style></defs><title>Logo_positiv</title><path class="cls-1" d="M41.86,41l12.26,4.91,1-3.21L42.36,39.48ZM20.94,39.48L8.14,42.71l1,3.21L21.44,41Zm0.5-6.8L9.18,27.77,8.14,31l12.81,3.23Zm3.09-4.26,1.31-1-7-11.18-2.73,2Zm-5.73,29,7-11.18-1.31-1L16.08,55.41ZM32.46,25.85l0.88-13.18H30l0.88,13.18h1.62ZM30,61h3.38L32.46,47.85H30.84Zm8.81-15.76-1.31,1,7,11.18,2.74-2Zm0-16.84,8.46-10.14-2.74-2-7,11.18Zm3.59,5.79L55.16,31l-1-3.21L41.86,32.68Z" transform="translate(-8.14 -12.67)"/><path class="cls-1" d="M399.74,62.44c0-1.41-1.33-1.46-2.42-1.46-1.68,0-2.71,0-2.71,1.83s1.36,1.62,2.71,1.71c1.14,0.08,1.62-.14,1.62,1s-1,1-1.62,1c-1.42,0-1.78-.13-1.78-0.72V65.29h-1v0.58c0,1.38,1.4,1.45,2.75,1.45s2.58-.07,2.58-1.82c0-2-1.45-1.77-3.05-1.87-1,0-1.27,0-1.27-1.08,0-.77.57-0.75,1.74-0.75,1,0,1.45,0,1.45.63v0.23h1V62.44Zm-12.29-1.38h-0.93v6.2h0.93V63.64c0-1.43.33-1.9,1.85-1.9,1.05,0,1.49.19,1.49,1.32v4.19h0.93V63.13c0-1.73-.74-2.15-2.33-2.15a1.88,1.88,0,0,0-1.92.83h0V61.05Zm-8.37,3.1c0-2.16.11-2.42,1.78-2.42s1.78,0.26,1.78,2.42-0.12,2.41-1.78,2.41-1.78-.26-1.78-2.41m-1,0c0,2.61.44,3.16,2.75,3.16s2.75-.55,2.75-3.16S383.16,61,380.86,61s-2.75.56-2.75,3.18m-2.9-5.76h-0.93v1h0.93v-1Zm0,2.66h-0.93v6.2h0.93v-6.2Zm-3.44,0h-2.4v-1.5h-0.93v1.5h-0.83v0.76h0.83v3.65c0,1.45.33,1.86,1.77,1.86A1.55,1.55,0,0,0,372,65.52V65.06h-0.89v0.46c0,0.59,0,1.05-.87,1.05-0.69,0-.86-0.15-0.88-0.83V61.81h2.4V61.05Zm-7.34,6.2h1v-6.2h-0.94v3.82c0,1.47-.67,1.69-2,1.69S361.19,66,361.19,65v-4h-0.94v4c0,1.63.58,2.29,2.23,2.29a1.88,1.88,0,0,0,1.94-.89h0v0.82ZM357.2,58.4h-0.93v8.85h0.93V58.4Zm-8.36,5.76c0-2.16.12-2.42,1.79-2.42s1.78,0.26,1.78,2.42-0.11,2.41-1.78,2.41-1.79-.26-1.79-2.41m-1,0c0,2.61.44,3.16,2.75,3.16s2.75-.55,2.75-3.16S352.94,61,350.63,61s-2.75.56-2.75,3.18m-5.85-1c1.61,0.13,2.37-.15,2.37,1.54s-0.52,1.74-2.41,1.74-2.25,0-2.23-2h-1c-0.18,2.57,1,2.84,3.24,2.84s3.41-.08,3.41-2.59-1.06-2.34-3.16-2.46c-1.66,0-2.46.1-2.46-1.59,0-1.23.28-1.48,2.24-1.48s2.17,0.06,2.22,1.61h1c0.11-2.41-1.27-2.49-3.19-2.49-2.18,0-3.27.21-3.27,2.57S340.27,63,342,63.16m-11.26,4.09,0.54-.7-1.6-1.28a6.18,6.18,0,0,0,.11-1.24c0-.24,0-0.46,0-0.7h-0.93c0,0.2,0,.41,0,0.61s0,0.39,0,.59l-3.45-2.9a1.33,1.33,0,0,1-.61-1.24c0-1.17.75-1.21,1.71-1.21,1.33,0,1.49.23,1.49,1.35v0.55h1V60.56c0-1.87-.89-2.23-2.5-2.23s-2.72.34-2.72,2.09a1.83,1.83,0,0,0,.8,1.75c-1.13.32-1.8,0.26-1.8,2.41,0,2.76,1.4,2.75,3.36,2.75,1.42,0,2.8,0,3.31-1.15Zm-2.09-1.7c-0.21,1-1.57.89-2.53,0.89-2.08,0-2.36-.13-2.36-1.85,0-1.41.13-1.58,1.43-1.88Zm-14.3-3.12C314.38,61,313,61,312,61c-1.68,0-2.7,0-2.7,1.83s1.36,1.62,2.7,1.71c1.13,0.08,1.62-.14,1.62,1s-1,1-1.62,1c-1.41,0-1.78-.13-1.78-0.72V65.29h-1v0.58c0,1.38,1.4,1.45,2.75,1.45s2.59-.07,2.59-1.82c0-2-1.45-1.77-3-1.87-1,0-1.28,0-1.28-1.08,0-.77.57-0.75,1.73-0.75,1,0,1.45,0,1.45.63v0.23h1V62.44ZM302.1,63.61c0.08-1.43.13-1.87,1.82-1.87,1.41,0,1.63.1,1.68,1.87h-3.5Zm3.51,1.77v0.24c0,0.88-.41,1-1.69,1-1.68,0-1.82-.25-1.82-2.21h4.46V63.73c0-2.29-.63-2.75-2.64-2.75-2.22,0-2.79.6-2.79,3.18,0,2.36.37,3.16,2.79,3.16,1.38,0,2.64-.08,2.64-1.72V65.37h-1Zm-7.37-7h-0.93v1h0.93v-1Zm0,2.66h-0.93v6.2h0.93v-6.2Zm-4,0h-0.93v0.78h0a2,2,0,0,0-2-.86c-2.12,0-2.44,1.11-2.44,3.18s0.44,3.16,2.44,3.16c0.73,0,1.74-.08,2-0.84h0v1.43c0,1.22-.69,1.34-1.8,1.34S290,69.18,290,68h-0.93c-0.09,1.79,1,2,2.48,2s2.73-.37,2.73-2V61.05Zm-2.73,5.51c-1.8,0-1.7-.92-1.7-2.41s0-2.42,1.7-2.42,1.8,0.7,1.8,2.42c0,1.38,0,2.41-1.8,2.41m-9.89-2.41c0-2.16.11-2.42,1.78-2.42s1.78,0.26,1.78,2.42-0.12,2.41-1.78,2.41-1.78-.26-1.78-2.41m-1,0c0,2.61.45,3.16,2.75,3.16s2.75-.55,2.75-3.16S285.72,61,283.42,61s-2.75.56-2.75,3.18m-2.89-5.76h-0.93v8.85h0.93V58.4Zm-8.36,5.76c0-2.16.12-2.42,1.79-2.42S273,62,273,64.16s-0.12,2.41-1.78,2.41-1.79-.26-1.79-2.41m-1,0c0,2.61.45,3.16,2.76,3.16s2.75-.55,2.75-3.16S273.51,61,271.21,61s-2.76.56-2.76,3.18m-7.19-3.1h-0.93v6.2h0.93V63.64c0-1.43.33-1.9,1.85-1.9,1,0,1.49.19,1.49,1.32v4.19h0.93V63.13c0-1.73-.74-2.15-2.34-2.15a1.87,1.87,0,0,0-1.91.83h0V61.05Zm-8.33-2.66H252v8.85h0.93V63.64c0-1.43.33-1.9,1.86-1.9,1.05,0,1.49.19,1.49,1.32v4.19h0.93V63.13c0-1.73-.74-2.15-2.34-2.15a1.87,1.87,0,0,0-1.91.83h0V58.4ZM248.3,65v0.31c0,1.12-.42,1.25-1.59,1.25-1.82,0-1.89-.53-1.89-2.28,0-2,0-2.55,1.69-2.55,1.07,0,1.69,0,1.69,1.15v0.19h0.93V62.91c0-1.76-1.18-1.93-2.68-1.93-2.24,0-2.6,1-2.6,3,0,2.3.18,3.3,2.75,3.3,1.48,0,2.63-.22,2.63-2V65H248.3Zm-11.59-1.4c0.07-1.43.13-1.87,1.82-1.87,1.42,0,1.63.1,1.67,1.87h-3.49Zm3.51,1.77v0.24c0,0.88-.41,1-1.69,1-1.68,0-1.82-.25-1.82-2.21h4.46V63.73c0-2.29-.64-2.75-2.64-2.75-2.22,0-2.79.6-2.79,3.18,0,2.36.36,3.16,2.79,3.16,1.38,0,2.64-.08,2.64-1.72V65.37h-1Zm-8.37-6.09h2.87V58.4H228v0.88h2.87v8h1v-8Zm-8.48,5.18h3.08V63.58h-3.08v0.88ZM215,66.37V59.28h3.47a1.94,1.94,0,0,1,1.87,2.14v2.32c0,1.59-.26,2.62-2,2.62H215Zm-1,.88h4.54c2.66,0,2.8-2.46,2.8-3.33V61.81c0-3.27-2-3.41-3-3.41H214v8.85Zm-7.36-8h4.69V58.4h-5.69v8.85h5.69V66.37h-4.69V63.12h4.49V62.29h-4.49v-3ZM199,58.4h-1v8.85h5.51V66.37H199v-8Zm-14,5.21c0.07-1.43.13-1.87,1.82-1.87,1.42,0,1.63.1,1.68,1.87h-3.5Zm3.51,1.77v0.24c0,0.88-.41,1-1.69,1-1.68,0-1.82-.25-1.82-2.21h4.46V63.73c0-2.29-.64-2.75-2.64-2.75-2.22,0-2.79.6-2.79,3.18,0,2.36.36,3.16,2.79,3.16,1.38,0,2.64-.08,2.64-1.72V65.37h-1Zm-8-.36v0.31c0,1.12-.43,1.25-1.6,1.25-1.82,0-1.89-.53-1.89-2.28,0-2,0-2.55,1.69-2.55,1.07,0,1.69,0,1.69,1.15v0.19h0.93V62.91c0-1.76-1.18-1.93-2.68-1.93-2.25,0-2.6,1-2.6,3,0,2.3.18,3.3,2.75,3.3,1.48,0,2.63-.22,2.63-2V65h-0.93Zm-11.61-4h-0.93v6.2h0.93V63.64c0-1.43.33-1.9,1.86-1.9,1,0,1.48.19,1.48,1.32v4.19h0.93V63.13c0-1.73-.74-2.15-2.34-2.15a1.87,1.87,0,0,0-1.91.83h0V61.05Zm-4,6.2V63c0-1.89-1.13-2.06-2.69-2-1.38,0-2.48.1-2.48,1.69V62.8h1V62.59c0-.85.89-0.85,1.62-0.85,1.05,0,1.65.1,1.65,1.24v1.15h-0.06c-0.13-.57-1.34-0.62-2-0.62-1.53,0-2.42.23-2.42,1.94s1,1.88,2.36,1.88c0.78,0,1.69,0,2-.73l0,0v0.64h0.93ZM162,66.57c-1.08,0-1.56-.06-1.56-1.24,0-1,.45-1.08,1.56-1.08s1.88,0,1.88,1.16S163,66.57,162,66.57M148.3,61.05h-0.93v6.2h0.93V63.52a1.59,1.59,0,0,1,1.87-1.78c1.35,0,1.35.53,1.38,1.35v4.16h0.93v-3.8c0-1.34.57-1.71,1.89-1.71s1.36,0.47,1.36,1.52v4h0.93V63.16c0-1.53-.56-2.18-2.15-2.18a2.31,2.31,0,0,0-2.21,1,1.8,1.8,0,0,0-1.92-1,2.09,2.09,0,0,0-2.06,1h0v-1Zm-7.72,0v6.2h0.93V63.39c0-1.1.35-1.65,1.51-1.65a0.85,0.85,0,0,1,1,1v0.42h0.88V62.73A1.52,1.52,0,0,0,143.22,61a1.79,1.79,0,0,0-1.76.86l0,0,0-.77h-0.91Zm-7.31,3.1c0-2.16.12-2.42,1.78-2.42s1.79,0.26,1.79,2.42-0.12,2.41-1.79,2.41-1.78-.26-1.78-2.41m-1,0c0,2.61.45,3.16,2.75,3.16s2.75-.55,2.75-3.16S137.35,61,135,61s-2.75.56-2.75,3.18m-3.68-3.1V60.21c0-.83.13-1.13,1.06-1.13l0.58,0V58.35l-0.58,0c-1.52,0-2,.47-2,2v0.74h-0.95v0.76h0.95v5.44h0.93V61.81h1.64V61.05h-1.64Zm-8.22,0v6.2h0.93V63.39c0-1.1.35-1.65,1.51-1.65a0.85,0.85,0,0,1,1,1v0.42h0.88V62.73A1.52,1.52,0,0,0,123,61a1.78,1.78,0,0,0-1.76.86l0,0,0-.77H120.4Zm-7.25,2.55c0.07-1.43.13-1.87,1.82-1.87,1.42,0,1.63.1,1.68,1.87h-3.5Zm3.51,1.77v0.24c0,0.88-.41,1-1.69,1-1.68,0-1.82-.25-1.82-2.21h4.46V63.73c0-2.29-.64-2.75-2.64-2.75-2.22,0-2.79.6-2.79,3.18,0,2.36.36,3.16,2.79,3.16,1.38,0,2.64-.08,2.64-1.72V65.37h-1Zm-9.6-6.09c1.24,0,1.55.23,1.55,1.93s-0.68,1.71-2,1.71H104V59.28h3.07Zm-4.07,8h1V63.8h3.46c2.15,0,2.16-1.94,2.16-2.73,0-1.52-.4-2.68-2.11-2.68H103v8.85Zm-5.25-2.79h3.08V63.58H97.73v0.88ZM91.15,58.4H90.22v8.85h0.93V63.64c0-1.43.33-1.9,1.86-1.9,1,0,1.48.19,1.48,1.32v4.19h0.93V63.13c0-1.73-.74-2.15-2.34-2.15a1.87,1.87,0,0,0-1.92.83h0V58.4Zm-4,2.66H86.23v0.78h0a2,2,0,0,0-2-.86c-2.12,0-2.44,1.11-2.44,3.18s0.43,3.16,2.44,3.16c0.73,0,1.74-.08,2-0.84h0v1.43c0,1.22-.68,1.34-1.79,1.34s-1.55-.07-1.55-1.27H82c-0.1,1.79,1,2,2.48,2s2.73-.37,2.73-2V61.05Zm-2.73,5.51c-1.81,0-1.7-.92-1.7-2.41s0-2.42,1.7-2.42,1.79,0.7,1.79,2.42c0,1.38,0,2.41-1.79,2.41M78.88,58.4H77.95v1h0.93v-1Zm0,2.66H77.95v6.2h0.93v-6.2Zm-4-2.66h-1v3.9H68.66V58.4h-1v8.85h1V63.18h5.19v4.07h1V58.4Z" transform="translate(-8.14 -12.67)"/><path class="cls-1" d="M286.86,41.64c0,0.14.07,0.58,2,.58h8.29c2,0,2-.44,2-0.58V32.06c0-.14-0.07-0.58-2-0.58h-8.29c-2,0-2,.44-2,0.58v9.58ZM276.58,43V30.69c0-4,2.71-5.75,11.17-5.75h10.58c8.46,0,11.17,1.77,11.17,5.75V43c0,4-2.71,5.75-11.17,5.75H287.75c-8.45,0-11.17-1.77-11.17-5.75" transform="translate(-8.14 -12.67)"/><polygon class="cls-1" points="226.84 12.23 196.33 12.23 196.33 19.4 206.51 19.4 206.51 36.09 216.38 36.09 216.38 19.4 226.84 19.4 226.84 12.23"/><rect class="cls-1" x="342.59" y="12.23" width="9.79" height="23.86"/><polygon class="cls-1" points="391.71 12.23 380.04 12.23 374.6 17.86 369.49 12.23 356.76 12.23 367.34 23.89 356.25 36.09 368.98 36.09 374.56 29.8 380.55 36.09 392.21 36.09 381.12 23.89 391.71 12.23"/><path class="cls-1" d="M92.8,47.3H69.12V26.4H77.4V43.13H92.8V47.3Zm1.46,1.46V41.67H78.86V24.94H67.65V48.76h26.6Z" transform="translate(-8.14 -12.67)"/><path class="cls-1" d="M197.75,47.3h-8.29V26.4h8.29V47.3Zm1.46-22.36H188V48.76h11.21V24.94Z" transform="translate(-8.14 -12.67)"/><path class="cls-1" d="M126.63,47.3H109.47c-8.36,0-11.53-2.36-11.53-7.66V26.4h8.29V38.06c0,5.08.36,5.08,6,5.08h6V26.4h8.39V47.3Zm1.46,1.46V24.94H116.77V41.67h-4.56c-4.25,0-4.52,0-4.52-3.83V24.94H96.48V40.33c0,5.84,3.49,8.43,12.71,8.43h18.9Z" transform="translate(-8.14 -12.67)"/><path class="cls-1" d="M314.33,24.94V48.76h11.32V31.48h4.55c4.25,0,4.53,0,4.53,3.84V48.76h11.21V33.37c0-5.84-3.5-8.43-12.71-8.43h-18.9Z" transform="translate(-8.14 -12.67)"/><path class="cls-1" d="M134.81,26.4h35.44c8.36,0,11.53,2.35,11.53,7.65V47.3h-8.29V35.64c0-5.08-.36-5.08-6-5.08h-5.12V47.3H154V30.57H143.2V47.3h-8.39V26.4Zm-1.46-1.46V48.76h11.31V32h7.88V48.76h11.31V32h3.65c4.25,0,4.53,0,4.53,3.84V48.76h11.21V33.37c0-5.84-3.5-8.43-12.71-8.43H133.34Z" transform="translate(-8.14 -12.67)"/><path class="cls-1" d="M261.33,34.6c0,0.14-.07.87-2,0.87h-9.94V31.2h9.94c2,0,2,.72,2,0.86V34.6Zm10.28,0.46V30.69c0-4-2.71-5.75-11.16-5.75H239.07V48.76h10.29v-8h4.23l7.54,8h11.64L265,40.57c4.9-.6,6.61-2.36,6.61-5.51" transform="translate(-8.14 -12.67)"/><path class="cls-1" d="M405.45,27.68h1.16a1.83,1.83,0,0,0,1.13-.25,0.8,0.8,0,0,0,.3-0.65,0.76,0.76,0,0,0-.14-0.47,0.87,0.87,0,0,0-.41-0.31,2.86,2.86,0,0,0-.94-0.1h-1.09v1.78Zm-1,3.33V25.1h2a5,5,0,0,1,1.5.16,1.49,1.49,0,0,1,.75.57,1.55,1.55,0,0,1-.19,2,1.81,1.81,0,0,1-1.22.54,1.57,1.57,0,0,1,.5.31,6.63,6.63,0,0,1,.87,1.17L409.46,31h-1.17l-0.53-.93a4.74,4.74,0,0,0-1-1.38,1.23,1.23,0,0,0-.76-0.2h-0.56V31h-1Z" transform="translate(-8.14 -12.67)"/><path class="cls-1" d="M411.35,28a4.6,4.6,0,1,1-4.6-4.6,4.6,4.6,0,0,1,4.6,4.6m0.89,0a5.49,5.49,0,1,0-5.5,5.48,5.49,5.49,0,0,0,5.5-5.48" transform="translate(-8.14 -12.67)"/></svg>